<svg width="100" height="100" viewBox="0 0 100 100" fill="none" xmlns="http://www.w3.org/2000/svg">
<path d="M68.6714 23.2694C71.1952 25.831 73.1021 28.6988 74.3921 31.873C75.682 35.0471 76.327 38.3047 76.327 41.6459C76.327 44.9871 75.682 48.2447 74.3921 51.4188C73.1021 54.593 71.1952 57.4608 68.6714 60.0224L51.5095 77.0624C51.1169 77.4522 50.6683 77.6471 50.1635 77.6471C49.6587 77.6471 49.2101 77.4522 48.8175 77.0624L31.6556 60.0224C29.1317 57.5165 27.2249 54.6486 25.9349 51.4188C24.645 48.189 24 44.9314 24 41.6459C24 38.3604 24.645 35.1028 25.9349 31.873C27.2249 28.6431 29.1458 25.7753 31.6976 23.2694C34.2495 20.7635 37.1238 18.8702 40.3206 17.5894C43.5175 16.3086 46.7984 15.6682 50.1635 15.6682C53.5286 15.6682 56.8095 16.3086 60.0064 17.5894C63.2032 18.8702 66.0915 20.7635 68.6714 23.2694ZM56.2206 47.66C57.0619 46.8247 57.6788 45.8781 58.0714 44.82C58.464 43.762 58.6603 42.7039 58.6603 41.6459C58.6603 40.5879 58.464 39.5298 58.0714 38.4718C57.6788 37.4137 57.0619 36.4671 56.2206 35.6318C55.3794 34.7965 54.4259 34.1839 53.3603 33.7941C52.2947 33.4043 51.2291 33.2094 50.1635 33.2094C49.0979 33.2094 48.0323 33.4043 46.9667 33.7941C45.9011 34.1839 44.9476 34.7965 44.1064 35.6318C43.2651 36.4671 42.6482 37.4137 42.2556 38.4718C41.863 39.5298 41.6386 40.5879 41.5825 41.6459C41.5265 42.7039 41.7508 43.762 42.2556 44.82C42.7603 45.8781 43.3773 46.8247 44.1064 47.66C44.8355 48.4953 45.7889 49.1079 46.9667 49.4977C48.1444 49.8875 49.2101 50.1102 50.1635 50.1659C51.1169 50.2216 52.1825 49.9988 53.3603 49.4977C54.5381 48.9965 55.4915 48.3839 56.2206 47.66Z" fill="#34CB79"/>
</svg>
