<svg width="200" height="200" viewBox="0 0 200 200" fill="none" xmlns="http://www.w3.org/2000/svg">
<path d="M136.343 45.5388C141.39 50.662 145.204 56.3977 147.784 62.7459C150.364 69.0941 151.654 75.6094 151.654 82.2918C151.654 88.9741 150.364 95.4894 147.784 101.838C145.204 108.186 141.39 113.922 136.343 119.045L102.019 153.125C101.234 153.904 100.337 154.294 99.327 154.294C98.3175 154.294 97.4201 153.904 96.6349 153.125L62.3111 119.045C57.2635 114.033 53.4497 108.297 50.8698 101.838C48.2899 95.3781 47 88.8628 47 82.2918C47 75.7208 48.2899 69.2055 50.8698 62.7459C53.4497 56.2863 57.2915 50.5506 62.3952 45.5388C67.4989 40.5271 73.2476 36.7404 79.6413 34.1788C86.0349 31.6173 92.5968 30.3365 99.327 30.3365C106.057 30.3365 112.619 31.6173 119.013 34.1788C125.406 36.7404 131.183 40.5271 136.343 45.5388ZM111.441 94.32C113.124 92.6494 114.358 90.7561 115.143 88.64C115.928 86.5239 116.321 84.4079 116.321 82.2918C116.321 80.1757 115.928 78.0596 115.143 75.9436C114.358 73.8275 113.124 71.9341 111.441 70.2635C109.759 68.593 107.852 67.3679 105.721 66.5883C103.589 65.8086 101.458 65.4188 99.327 65.4188C97.1958 65.4188 95.0646 65.8086 92.9333 66.5883C90.8021 67.3679 88.8952 68.593 87.2127 70.2635C85.5302 71.9341 84.2963 73.8275 83.5111 75.9436C82.7259 78.0596 82.2773 80.1757 82.1651 82.2918C82.0529 84.4079 82.5016 86.5239 83.5111 88.64C84.5206 90.7561 85.7545 92.6494 87.2127 94.32C88.6709 95.9906 90.5778 97.2157 92.9333 97.9953C95.2889 98.7749 97.4201 99.2204 99.327 99.3318C101.234 99.4432 103.365 98.9977 105.721 97.9953C108.076 96.993 109.983 95.7679 111.441 94.32Z" fill="#34CB79"/>
</svg>
